<svg xmlns="http://www.w3.org/2000/svg" viewBox="0 0 46 46"><path d="M41.2 22.8c0-1.4-.1-2.7-.4-4H22.3v7.6h10.6c-.5 2.5-1.8 4.5-3.9 5.9v4.9h6.4c3.6-3.4 5.8-8.4 5.8-14.4z" fill-rule="evenodd" clip-rule="evenodd" fill="#4285f4"/><path d="M22.3 42c5.3 0 9.8-1.8 13-4.8L29 32.3c-1.8 1.2-4 1.9-6.7 1.9-5.1 0-9.5-3.5-11-8.1H4.7v5.1C8 37.6 14.6 42 22.3 42z" fill-rule="evenodd" clip-rule="evenodd" fill="#34a853"/><path d="M11.3 26.1c-.4-1.2-.6-2.4-.6-3.7s.2-2.6.6-3.7v-5.1H4.7c-1.3 2.7-2.1 5.7-2.1 8.8s.8 6.2 2.1 8.8l6.6-5.1z" fill-rule="evenodd" clip-rule="evenodd" fill="#fbbc05"/><path d="M22.3 10.5c2.9 0 5.5 1 7.5 2.9l5.6-5.6C32 4.6 27.5 2.7 22.3 2.7 14.6 2.7 8 7.1 4.8 13.5l6.6 5.1c1.5-4.7 5.8-8.1 10.9-8.1z" fill-rule="evenodd" clip-rule="evenodd" fill="#ea4335"/><path d="M2.7 2.7H42V42H2.7V2.7z" fill="none"/></svg>